/* XPM */
static char * psl1ght_xpm[] = {
"224 40 16 1",
" 	c #000000",
".	c #210000",
"+	c #420000",
"@	c #212142",
"#	c #632121",
"$	c #424263",
"%	c #9C4242",
"&	c #63639C",
"*	c #BD6363",
"=	c #9C9CBD",
"-	c #DE9C9C",
";	c #BDBDDE",
">	c #FFBDBD",
",	c #FFD6D6",
"'	c #DEDEFF",
")	c #DEFFFF",
"  @$$$&&&&&&&&&&&&&$@                  @@$&&&&&&&==========$@        @$$$@                                    @$$$@                        @@$$&&&==========$@     @$$$@               @$$$@      @$$&&&&=====;=;;;;;;=====$@   ",
" $&&&&;;;;;;;;;;;;;==&$@             @$&&;;;;;;&&&&&&&&&='';&$      $$&&&$$                                  $$&&&$$                     @$&&&&&&&&&&&&&&='';&$   $$&&&$$             $$&&&$$    $&===;;;;;;;;;;;;;==&&&='';&$  ",
"@&&&=='))))))))))))'';=&$           $&==;;;''))))))))))))))'&$@    @$&&==&&@                                $$&&==&&@                   $&&===;'''))))))))))'&$@ @$&&==&&@           @$&&==&&@  @&==;;;;;''))))))))))))))))'&&@ ",
"$&&=;'))))))))))))))))';=&@        &==;;;''))))))))))))))))'=&$    $$&=;'';$                               $&&==;'';$                  &&====;;;''')))))))))'=&$ $$&=;'';$           $$&=;'';$  $==;;;;;;;'')))))))))))))))'=&$ ",
"$&=;;))';;;;;;;;;;''))))'=&@      $==;;;''''';;;;;;;;;;;;'';=&&    $&=;'))'=                              &&==;;'))'=                 &&==;;;;;;;;;;;;;;;;'';=&& $&=;'))'=           $&=;'))'=  %=$@@$&=;;;;;;;;;;;;;;;;;'';=&& ",
"$&=;;));;;;;;;;;;;;;;;'))'=&@    @&=;;;'';;;;;;;;;;;;;=&$@@@&@*    $&=;'))'=                             &&=;;;;'))'=                &&==;'';;;;;;;;;;;=&$@@@&@* $&=;'))'=           $&=;'))'=  %*+...@@$&=;;;;;'''';;=&$@@@&@* ",
"$==;;));;&@&;;;;;;;;;;;;');=$    $=;;;;;;;;;=&$@$&=&=&$@.+#%->+    $=;;;))==                            &=;;;;;;;))==               $&==;'';=$@.@$&===&$@.+#%->+ $=;;;))==           $=;;;))==  +*%##.@$$&&;;;;'))';;&$@.+#%->+ ",
"$==;;));@..%******&&;;;;;'';&@  @&=;;;;;;$++#**#++....+#%**->%     $=;;;))&=                           $=;;;;';;;))&=              @&==;'';=@..........+#%**->%  $=;;;))&=           $=;;;))&=   #**%##+++..;;;'))'...+#%**->%  ",
"$==;;))@*-----------*&;;;'';=$  @&=;;';;@#*-->>>>>,,,,,,>>-%+      $=;;;))$=                          @&;;;'';;;;))$=              $&=;;';=@.#--,,,,,,,,,>>-%+   $=;;;))$=           $=;;;))$=    +%***-----.;;;)).;;,,,>>-%+   ",
"$==;;))@-           +*;;;;')=&@ @&;;;''$#-                         $=;;;))&=                          $=;'')';;;;))&=             @&==;;;;$.*--#.                $=;;;))&=           $=;;;))&=             -.;;;))@;            ",
"&==;;))$>            +&;;;');&@ $&;;;)'@-                          &=;;;))&=                          &;'))';;;;;))&=             $&=;;;;=@*-#                   &=;;;))&=           &=;;;))&=             &@;;;))@=            ",
"&==;;')&=             &;;;');=$ $&;;;)'$>                          $=;;;')&=                          $;'))';;;;;')&=             &$=;;;'&.-#                    &&;;;))&=           $=;;;')&=             $@;;;')&=            ",
"&==;;''&=             &;;;');=$ $&;;;))&;                          &=;;;''&=                          @&;'';;=;;;''&=            @&$=;;''$*-                     &&;;;))&=           &=;;;''&=             &@;;;''&=            ",
"&&=;;''&=             &;;;');=$ $&;;;))=;                          &&;;;''&=                           $&;;;=&;;;''&=            $&$;;;'';,#                     &$;;;))&=           &;;;;''&=             &@;;;''&=            ",
"&&;;;;'&=             &;;;');=$ @&;;;''';$                         &&;;;;'&=                            @&&&&&;;;;'&=            $$$;;;'''$.                     &$;;;))&=           ;;;;;''&=             &@;;;;'&=            ",
"&$;;;;;&=             ;;;;));=$ @&;;;;'';==&&&&&&&&&&&@@           &$;;;;;&=                                &$;;;;;&=           @$@&;;''')@      @$=========$@   &@&;'));&;;;;;;;;;;;;;;;;''&=             &@;;;;;&=            ",
"&$;;;;;&=            @;;;')';&@ @&;;;;'';;==;;;;;;;;;;;;$@         &$;;;;;&=                                &$;;;;;&=           @$.&;;'';)@     $&;;;;;====;;;$  &@&''));;========;;;''';;''&=             &.;;;;;&=            ",
";@;;;;;$;           @&;;;')';&@  $&;;;;''''''')))))))'';;;$        ;@;;;;;$;                                ;@=;;;;$;           @$.&;;;';;     @$&;;;''))))))'=@ ;@&;'))'''''''))))))))'';';$;             ;.;;;;;$;            ",
";@====&@;   @$$=;;;;;;;;'));=$   @*;;;;;;;;;;''))))))))))';$       ;@====&@;                                ;@====&@;           @$.$=;;;&;     $&=;;;;''))))));$ ;.$=;')))''''''))))))'''==&@;             ;.====&@;            ",
",@$==&@@;  $&===;;;;;;''))';&@    #@&=;;;;;;;;;;;;;'')))));;-      ,@$==&@@;                                ,@$==&@@;           @$.@&=;;$,     &&=;;;;;;;;;'))'= ,.@&=;''';;;;;;;;;;;;;;==&@@;             ,.$==&@@;            ",
",.@$$&$., @&==;;;''')))))';=$      *%@$&=;;;;;;;;;;;;;;'))';-#     ,.@$$&$.,                                ,.@$$&$.,           @$..@$&;@>.    *@$&=;;;;;;;'));= ,..@$&=;;;;;;;;;;;;;;;;$$&$.,             ,.@$$&$.,            ",
",......., $==;;;;;;''))'';$&        %-%..@$&==;;;;;;;;;;;');@-     ,.......,                                ,.......,           @$....@@.-+    +>-%#+.@&=;;;))== ,....@$&$@@@$$&===&$@$@..@..,             ,.......,            ",
",.....++, %=$@@$&=;;;;;;&@&@          %-*.............@$&&$@.-+    >.....++,                                ,.....++,           @*.......*%     %>-*%%#+$;;;))&= ,.............+#*#+.......++,             ,.....++,            ",
",...++##, %*+..@@@$&==&$@.@             %>>>>>>>>>>>>*.......-#    ,...++##,                                ,...++##,           @*+......#*      +%*----.;;;))&= ,+...++#*-->>,,,,,,>*...++##,             ,...++##,            ",
",..+##%*, +*%##.@$&$@.+%*@                           -*.++++#*-    >..+##%*,                                ,..+##%*,            *%......+-            -.;;;))&= ,..+##%*,           >..+##%*,             ,..+##%*,            ",
",.+#%%*-,  #**%##+++%**#+                             >++###%*-    >.+#%%*-,                                ,.+#%%*-,            #*......+-+           -.;;;))&= ,.+#%%*-,           >.+#%%*-,             ,.+#%%*-,            ",
">.#%%*->,   +%******#+                                >+#%****-    -.#%%*->,                                >.#%%*->,            +*+...++#**           -@;;;')&= >.#%%*->,           >.#%%*->,             >.#%%*->,            ",
",.#%*->>>                                             >#%*-----    *.#%*->>>                                ,.#%*->>>             *#..+##%%-@          -$;;;''&= ,.#%*->>>           >.#%*->>>             ,.#%*->>>            ",
">.%*->>,>                                             >%*-->>>*    %.%*->>,>                                >.%*->>,>             *%.+##%**-&@         -&;;;''&= >.%*->>,>           >.%*->>,>             >.%*->>,>            ",
">.%*->,,>                                            $>*->>>>>&    #+%*->,,,-                               >.%*->,,>             +*.+#%**-->;&@       -=;;;''&= >.%*->,,>           >.%*->,,>             >.%*->,,>            ",
">.*->>,,>                         @$$===;;;&&&&&&&&&&&,>>>,,,'&    +%+->,,,'==&&========$@                  >.*->>,,>              *#+#%*->>,>>;;;=;;;;;;;;'''$= >.*->>,,>           >.*->>,,>             >.*->>,,>            ",
"-.*->,,,>                        $&===;;;;;;;;;;;;;;'',,,,,)''$     %+->,,,''==$&&&&&='';&$                 -.*->,,,>              +*.+%*->,,,,',';;;;;;;;'')'$; -.*->,,,>           -.*->,,,>             -.*->,,,>            ",
"-.*>>,,>>                       @&==;;;'''')))))))))))))))))'=@     %+*>,,',''''))))))))'&$@                -.*>>,,>>               *%.#%*->,,',',''''''))))))@; -.*>>,,>>           -.*>>,,>>             -.*>>,,>>            ",
"-.*>,,,->                       $==;;;;;;;')))))))))))))))'';$      +%+>,','''''')))))))'=&$                -.*>,,,->                *%.+%-->,,',''''''''))))'@, -.*>,,,->           -.*>,,,->             -.*>,,,->            ",
"*.*>>,>*>                       %=$@@$&=;;;;;;;;;;;;''''''';=@       %+%*->,'';;;;;;;;'';=&&                *.*>>,>*>                 *%..+%*->,',';;;;;;;;''@@- *.*>>,>*>           *.*>>,>*>             *.*>>,>*>            ",
"*%+%*-***                       %*+...@@$&=;;;;;;;;;;;;;=&@+#         %++-,''';;;;;=&$@@@&@*                **+%*-***                  *%+......@@$&==&$@@@&;$.* **+%*-***           **+%*-***             **+%*-***            ",
"+-++###-+                       +*%##.@$$&&&&$@$$&&$@.+##++#           %%+++@$@$&=&$@.+#%->+                +-++###-+                   **%+.+#%*--*%#+.+#%*%*-+ +-++###-+           +-++###-+             +-++###-+            ",
" %-%++-%                         #**%##+++...%**#+#+###%%#+             +%*%.......+#%**->%                  %-%++-%                     +**%+.......+#%**----%   %-%++-%             %-%++-%               %-%++-%             ",
"  +*-*+                           +%***---------***%*%%#+                  +#*->,>-*->>-%+                     @$@                         +%**************-*+     +*-*+               +*-*+                 +*-*+              ",
"                                                                                                                                                                                                                                "};
